<svg width="630" height="695" viewBox="0 0 630 695" fill="none" xmlns="http://www.w3.org/2000/svg">
<path fill-rule="evenodd" clip-rule="evenodd" d="M0 114.309V579.776C0 628.243 34.75 668.48 74.9868 684.941C89.6184 691.342 106.079 695 125.283 695H503.875C529.48 695 553.257 688.599 573.375 675.796L598.066 654.763C615.441 633.73 629.158 610.868 629.158 579.776V114.309C629.158 76.8158 604.467 39.3224 574.29 19.2039C554.171 6.40132 530.395 0 503.875 0H125.283C98.7632 0 75.9013 6.40132 55.7829 19.2039C38.4079 30.1776 21.9474 48.4671 12.8026 66.7566C6.40132 79.5592 0 95.1053 0 114.309ZM48.4671 479.184L49.3816 484.671H128.941V479.184V371.276H48.4671V479.184ZM48.4671 322.809H133.513H128.941V210.329H124.368H48.4671V322.809ZM48.4671 161.862H127.112H128.941V49.3816C97.8487 49.3816 75.9013 60.3553 63.0987 78.6447C44.8092 104.25 48.4671 126.197 48.4671 161.862ZM48.4671 569.717C48.4671 615.441 79.5592 645.618 128.941 645.618V533.138H48.4671V569.717ZM500.217 161.862H580.691C580.691 118.882 586.178 98.7632 558.743 70.4145C544.112 54.8684 527.651 49.3816 500.217 49.3816V161.862ZM500.217 322.809H580.691V210.329H582.52H500.217V322.809ZM500.217 479.184L501.132 484.671H579.776L580.691 479.184V371.276H500.217V479.184ZM500.217 645.618C534.967 645.618 561.487 631.901 574.29 602.638C583.434 583.434 580.691 556 580.691 533.138H500.217V645.618Z" fill="#EF233C"/>
<path fill-rule="evenodd" clip-rule="evenodd" d="M0 114.309V579.776C0 628.243 34.75 668.48 74.9868 684.941C89.6184 691.342 106.079 695 125.283 695H503.875C529.48 695 553.257 688.599 573.375 675.796L598.066 654.763C615.441 633.73 629.158 610.868 629.158 579.776V114.309C629.158 76.8158 604.467 39.3224 574.29 19.2039C554.171 6.40132 530.395 0 503.875 0H125.283C98.7632 0 75.9013 6.40132 55.7829 19.2039C38.4079 30.1776 21.9474 48.4671 12.8026 66.7566C6.40132 79.5592 0 95.1053 0 114.309ZM48.4671 479.184L49.3816 484.671H128.941V479.184V371.276H48.4671V479.184ZM48.4671 322.809H133.513H128.941V210.329H124.368H48.4671V322.809ZM48.4671 161.862H127.112H128.941V49.3816C97.8487 49.3816 75.9013 60.3553 63.0987 78.6447C44.8092 104.25 48.4671 126.197 48.4671 161.862ZM48.4671 569.717C48.4671 615.441 79.5592 645.618 128.941 645.618V533.138H48.4671V569.717ZM500.217 161.862H580.691C580.691 118.882 586.178 98.7632 558.743 70.4145C544.112 54.8684 527.651 49.3816 500.217 49.3816V161.862ZM500.217 322.809H580.691V210.329H582.52H500.217V322.809ZM500.217 479.184L501.132 484.671H579.776L580.691 479.184V371.276H500.217V479.184ZM500.217 645.618C534.967 645.618 561.487 631.901 574.29 602.638C583.434 583.434 580.691 556 580.691 533.138H500.217V645.618Z" fill="#FF4C61"/>
</svg>
